<?xml version="1.0" standalone="no"?>
<!DOCTYPE svg PUBLIC "-//W3C//DTD SVG 20010904//EN"
 "http://www.w3.org/TR/2001/REC-SVG-20010904/DTD/svg10.dtd">
<svg version="1.0" xmlns="http://www.w3.org/2000/svg"
 width="512.000000pt" height="512.000000pt" viewBox="0 0 512.000000 512.000000"
 preserveAspectRatio="xMidYMid meet">

<g transform="translate(0.000000,512.000000) scale(0.100000,-0.100000)"
fill="#000000" stroke="none">
<path d="M1801 4630 c-88 -22 -163 -116 -181 -226 -21 -131 35 -291 135 -382
177 -162 406 -72 432 169 12 116 -36 255 -119 345 -69 75 -183 116 -267 94z"/>
<path d="M652 4551 c-75 -26 -122 -68 -161 -143 -87 -170 -33 -414 130 -580
193 -198 446 -192 558 12 31 57 36 74 39 153 8 164 -42 298 -155 418 -75 79
-126 113 -214 140 -76 24 -129 24 -197 0z"/>
<path d="M3670 4243 c-199 -69 -334 -329 -260 -501 77 -178 303 -190 466 -25
77 79 116 165 122 269 3 50 0 96 -8 119 -16 50 -75 114 -125 136 -49 23 -134
24 -195 2z"/>
<path d="M2644 4176 c-60 -19 -127 -69 -168 -124 -67 -92 -93 -178 -105 -346
-7 -98 -10 -110 -35 -134 -25 -26 -32 -27 -119 -26 -71 0 -121 8 -217 34 -69
18 -144 33 -166 33 -125 1 -235 -160 -204 -298 14 -64 21 -74 102 -163 84 -93
108 -136 108 -198 0 -61 -29 -100 -98 -132 -46 -21 -65 -24 -122 -20 -89 7
-143 33 -333 161 -178 120 -252 151 -357 150 -205 -1 -329 -189 -239 -365 52
-102 97 -139 326 -266 195 -109 219 -125 239 -164 21 -40 13 -80 -32 -154
-108 -177 -138 -269 -138 -429 0 -193 56 -339 178 -461 117 -118 254 -174 426
-174 154 0 288 51 389 149 31 31 103 125 160 208 132 196 190 243 299 243 104
0 189 -38 380 -173 65 -45 149 -97 189 -115 173 -79 379 -82 540 -6 82 39 188
145 203 204 22 83 -9 201 -68 263 -15 16 -77 66 -137 112 -128 95 -154 123
-201 217 -44 87 -68 179 -61 236 8 68 69 177 162 287 131 154 161 234 135 360
-16 78 -49 141 -97 186 -76 73 -143 92 -375 108 -76 5 -150 16 -165 23 -27 13
-28 16 -27 86 2 67 6 81 63 195 72 144 91 215 72 277 -19 63 -73 116 -165 160
-133 65 -252 84 -342 56z"/>
<path d="M4265 2917 c-120 -40 -214 -116 -260 -212 -23 -47 -27 -65 -23 -124
6 -116 68 -184 198 -217 55 -14 76 -15 139 -5 137 21 268 107 321 211 28 54
37 144 20 195 -16 48 -72 110 -124 138 -51 26 -209 34 -271 14z"/>
<path d="M3877 1286 c-71 -26 -114 -62 -142 -121 -24 -48 -27 -64 -23 -118 10
-123 96 -235 231 -302 170 -84 349 -46 420 89 32 62 30 154 -5 227 -32 63
-122 156 -186 188 -94 48 -220 63 -295 37z"/>
<path d="M2434 1041 c-79 -29 -113 -50 -167 -100 -223 -207 -67 -504 237 -453
284 48 443 323 283 490 -56 59 -100 75 -207 79 -73 2 -107 -2 -146 -16z"/>
</g>
</svg>
